<svg 
  xmlns="http://www.w3.org/2000/svg"
  width="1333.333"
  height="1333.333"
  version="1.0"
  viewBox="0 0 1000 1000"
  stroke="#FF3300"
  fill="#00c46a">
  <path d="M470.5 94.2c-3.3.4-12.3 1.4-20 2.3-103.5 11.7-201.3 66.2-268.1 149.4-72.8 90.8-102.9 208.5-82.9 324.4 25.3 146.5 129.4 267.6 270.8 315.2 48.2 16.2 101 23.5 148.9 20.7 13.3-.8 16.4-1.4 21.1-3.5 11.5-5.2 18.1-15.8 18.1-28.7 0-13-6.6-23.5-18.3-28.8-5.4-2.5-6.4-2.6-24.5-2.6l-18.9-.1-6.3-11c-26.1-45.3-52.3-110.1-65-161-1.4-5.5-2.7-10.8-3-11.7-.5-1.6 3.2-1.7 52.8-2l53.3-.3 5.7-2.8c7-3.4 14-11 16.2-17.4 2-6 2-16.6 0-22.6-2.2-6.4-9.2-14-16.2-17.4l-5.7-2.8-59.2-.3-59.1-.3-.6-2.3c-1.4-5.7-4.6-43.3-5.6-65.8-.8-17.7-.8-31.9 0-49.5 1-22.6 4.2-60.2 5.6-65.9l.6-2.4H590l.5 2.2c2 9.3 5.2 50.1 6.1 78.8.5 18.3.8 21 2.8 25.5 3.3 7.3 7.9 12 15.1 15.6 5.9 2.9 7 3.1 14.7 2.7 9.6-.4 15.3-2.7 21.3-8.6 6-5.9 8.8-13.1 9.3-23.8.7-15.7-2.8-74.3-5.3-89.2l-.6-3.2h176.8l2.6 10.7c3.6 14.9 6.4 31.3 8.2 47.8 1.8 16.4 4.1 22.2 11.2 28.4 15.6 13.8 40 9.3 49.2-9 2.8-5.5 3.1-7.2 3.1-15 0-23.5-8.3-65.9-19.5-99.4C841.4 238.1 731.1 137.2 595 104.6c-32-7.7-58.8-10.9-93.5-11.1-13.7 0-27.7.2-31 .7zm39.2 74.3c26.9 47.4 52.2 110.2 64.9 161 1.4 5.5 2.7 10.8 3 11.7.5 1.7-3.7 1.8-77.6 1.8-73.9 0-78.1-.1-77.6-1.8.3-.9 1.7-6.3 3.1-12 13.3-53.1 41.7-122.5 68.2-166.5 3.2-5.3 3.8-5.8 6.6-5.5 2.9.3 3.7 1.3 9.4 11.3zm93.3 4.1c30.1 9.3 60.2 23.8 88.3 42.6 44.3 29.6 83.3 72 109.2 118.8 2.5 4.5 4.5 8.4 4.5 8.6 0 .2-36.4.4-80.9.4h-80.9l-3.2-13.8c-11.8-50-29.6-100.4-52.9-149.6-3.4-7.1-6.1-13-6.1-13.2 0-.4 7 1.6 22 6.2zm-192 11.1c-21.6 46.3-37.1 89.9-49.2 138.5l-5.1 20.8H194.8l4.7-8.8c2.6-4.8 8.9-15 13.9-22.7C253.5 250.6 313.3 203 381.1 178c12.1-4.4 33.3-10.9 36.1-11 1.3 0-.1 3.7-6.2 16.7zm-65.4 226.5C343.1 424 340 474 340 500s3.1 76 5.6 89.7l.6 3.3H169.3l-2.7-11.2c-7.4-30.5-10.1-56.5-9.3-90.6.7-30 2.7-45.6 9.4-73.5l2.6-10.7h176.9l-.6 3.2zm16.2 267.5c12 48.5 27.6 92.6 48.9 137.8 4.1 8.8 7.7 16.5 8 17.2.6 1.5-13.3-2.2-31.1-8.4-79.3-27.5-147.4-84.8-188-158.3-2.5-4.5-4.6-8.4-4.6-8.6 0-.2 36.4-.4 80.8-.4h80.9l5.1 20.7z"/>
  <path d="M776.3 594.1c-68.9 6.6-124.8 57.6-138.5 126.2-3 15.1-3.2 42.3-.4 57.2 4.2 22.6 14.1 45.8 27.4 64.5 10.6 14.9 33 36.4 78.2 75.1 28.5 24.4 32.6 27.6 38.3 29.5 6.7 2.2 18.6 1.5 24.4-1.4 7.7-4 73.4-61.2 94.8-82.7 24.2-24.1 38.6-50.6 45.2-83 2.5-12.8 2.5-46.2 0-59-9.7-47.9-39.3-87.6-81.7-109.4-19.3-9.9-36.6-15-58.6-17.1-12.1-1.1-17-1.1-29.1.1zm41 66.3c16.4 4.9 28.9 12.5 41.2 25.1 20.8 21.3 30.3 52 24.9 80.5-3 16.1-9.9 31-19.9 43.3-6.1 7.6-54.1 51.4-69.6 63.5l-2.5 2-13.5-11.6c-33.2-28.7-54.2-48.6-61.3-58.2-13.5-18.3-20.3-42.8-17.7-64.4 4.8-40.9 33.9-73.1 74.1-82.1 4.6-1 10.8-1.4 21-1.1 12.1.3 16 .8 23.3 3z"/><path d="M783.9 719.3c-15.4 4.4-24.9 17.6-23.7 33.2 1 11.5 7.1 20.9 17.3 26.3 4.3 2.3 6.2 2.7 14 2.7 10.7 0 15.9-2.1 23-9.1 12.2-12.3 11.3-34.4-1.9-46.1-7.6-6.7-19.5-9.6-28.7-7z"/>
</svg>